<svg width="20" height="20" viewBox="0 0 20 20" fill="none" xmlns="http://www.w3.org/2000/svg">
<path d="M1.84973 1.84972C1.62784 2.07161 1.60767 2.41883 1.78921 2.66351L1.84973 2.73361L5.21187 6.09575C3.61021 7.2203 2.41315 8.89993 1.91574 10.887C1.83192 11.2218 2.03541 11.5612 2.37026 11.645C2.70511 11.7289 3.0445 11.5254 3.12832 11.1905C3.56955 9.42789 4.65927 7.94956 6.1118 6.99543L7.61983 8.50354C7.03023 9.10482 6.66667 9.92854 6.66667 10.8372C6.66667 12.6781 8.15905 14.1705 10 14.1705C10.9086 14.1705 11.7324 13.807 12.3336 13.2174L17.2664 18.1503C17.5105 18.3944 17.9062 18.3944 18.1503 18.1503C18.3722 17.9284 18.3923 17.5812 18.2108 17.3365L18.1503 17.2664L13.0557 12.1712L13.0567 12.17L12.0566 11.1718L9.66498 8.78065L9.66667 8.78L7.26564 6.38152L7.26667 6.38L6.32226 5.4379L2.73361 1.84972C2.48953 1.60564 2.0938 1.60564 1.84973 1.84972ZM8.5034 9.38789L11.4493 12.3338C11.0743 12.697 10.5633 12.9205 10 12.9205C8.84941 12.9205 7.91667 11.9878 7.91667 10.8372C7.91667 10.2739 8.1402 9.76287 8.5034 9.38789ZM10 4.58333C9.16645 4.58333 8.35762 4.70672 7.59258 4.9375L8.62339 5.96766C9.06989 5.87943 9.53034 5.83333 10 5.83333C13.2692 5.83333 16.0916 8.06688 16.8726 11.1943C16.9563 11.5292 17.2955 11.7329 17.6304 11.6492C17.9653 11.5656 18.169 11.2263 18.0854 10.8914C17.1661 7.2106 13.8463 4.58333 10 4.58333ZM10.1622 7.50773L13.33 10.675C13.2452 8.9609 11.8727 7.5897 10.1622 7.50773Z" fill="#121212"/>
</svg>
